<?xml version="1.0" ?>

<svg version="1.0" xmlns="http://www.w3.org/2000/svg"
 width="201.600000pt" height="242.880000pt" viewBox="0 0 201.600000 242.880000"
 preserveAspectRatio="xMidYMid meet">

<g transform="translate(0.000000,242.880000) scale(0.024000,-0.024000)"
fill="#bf9557" stroke="none">
<path d="M3060 9150 c-12 -8 -13 -13 -2 -27 6 -10 15 -25 18 -33 3 -8 21 -46
39 -85 105 -226 163 -401 195 -590 45 -271 55 -413 41 -585 -9 -118 -33 -280
-52 -360 -29 -118 -51 -222 -64 -300 -8 -47 -19 -105 -24 -130 -13 -58 -13
-561 0 -620 5 -25 16 -88 24 -140 8 -52 19 -113 24 -135 6 -22 15 -67 22 -100
6 -33 18 -74 25 -92 8 -17 14 -38 14 -47 0 -20 143 -327 180 -386 5 -8 15 -28
22 -44 17 -39 32 -38 36 2 2 20 -5 45 -17 66 -19 30 -21 49 -21 197 0 141 3
170 20 207 10 23 22 58 26 77 3 19 12 39 20 46 21 17 19 -49 -3 -103 -26 -66
-26 -377 1 -432 13 -28 17 -51 12 -83 -4 -34 -2 -47 13 -62 10 -10 21 -36 24
-58 6 -35 24 -68 77 -140 9 -12 32 -24 55 -27 22 -4 54 -9 72 -12 26 -5 32 -2
38 16 5 15 1 28 -14 44 -12 12 -21 28 -21 36 0 8 -9 23 -19 34 -22 25 -38 86
-22 86 6 0 24 -27 41 -60 17 -33 40 -70 51 -81 12 -12 24 -33 28 -48 5 -18 18
-30 42 -38 39 -14 139 -17 139 -5 0 16 -31 72 -40 72 -14 0 -83 152 -95 207
-3 17 -13 37 -20 43 -8 7 -17 28 -20 49 -4 20 -14 54 -25 76 -37 81 -34 431 3
473 10 10 17 33 17 50 0 40 17 85 30 77 15 -10 12 -46 -11 -116 -19 -58 -20
-83 -17 -264 3 -164 7 -206 21 -232 9 -18 17 -45 17 -60 0 -15 6 -40 13 -54 8
-14 17 -44 20 -67 7 -40 36 -92 71 -127 9 -9 16 -23 16 -31 0 -7 9 -19 20 -26
11 -7 20 -23 20 -35 0 -30 28 -43 94 -43 63 0 86 7 86 26 0 10 6 11 26 4 42
-16 125 -12 147 7 13 12 36 18 76 18 34 0 65 6 74 14 20 16 23 61 4 61 -24 0
-77 76 -120 170 -8 19 -27 61 -41 92 -14 31 -26 65 -26 75 0 10 -8 34 -18 53
-23 42 -45 188 -45 285 1 116 23 285 42 324 10 20 21 53 25 75 4 21 16 55 27
75 10 20 19 50 19 68 0 17 5 35 11 39 8 4 10 -7 7 -37 -7 -62 -39 -202 -49
-215 -5 -6 -11 -44 -15 -85 -4 -41 -12 -96 -18 -124 -14 -60 -13 -167 2 -215
5 -19 13 -63 16 -98 3 -34 12 -75 20 -90 7 -15 16 -44 20 -66 4 -21 14 -54 23
-75 37 -84 66 -141 79 -152 8 -6 14 -16 14 -21 0 -5 10 -23 22 -41 13 -18 24
-34 25 -35 1 -2 10 -1 20 2 42 13 73 139 38 153 -16 5 -65 92 -65 114 0 6 -7
25 -15 42 -68 147 -92 315 -75 542 8 102 17 165 25 175 7 8 16 42 20 75 4 33
14 67 22 77 8 9 19 42 24 75 5 32 14 81 20 108 5 28 14 87 19 132 5 46 14 91
20 102 13 25 12 262 -1 321 -15 65 -20 158 -9 165 22 13 8 23 -35 23 -40 1
-45 -2 -51 -24 -4 -15 2 -46 15 -80 17 -46 21 -77 21 -183 0 -77 -6 -148 -14
-181 -8 -30 -17 -77 -21 -105 -4 -27 -16 -67 -26 -87 -11 -21 -19 -48 -19 -62
0 -30 -20 -76 -33 -76 -18 0 0 101 50 280 44 154 14 489 -44 498 -18 3 -21 -4
-25 -47 -3 -28 -1 -74 4 -103 18 -107 -7 -334 -53 -473 -10 -33 -19 -70 -19
-81 0 -12 -6 -27 -14 -33 -8 -7 -22 -35 -31 -63 -18 -56 -55 -113 -55 -85 0
33 30 128 45 143 8 8 15 29 15 46 0 17 8 45 19 62 10 17 22 49 26 71 4 22 13
47 21 56 12 13 15 60 17 230 2 193 0 218 -16 243 -13 18 -25 26 -40 24 -22 -3
-22 -7 -27 -200 -4 -176 -7 -199 -24 -215 -18 -18 -18 -15 -12 102 3 65 3 159
-1 208 -7 97 -19 115 -55 80 -17 -18 -18 -25 -9 -59 15 -53 13 -137 -4 -209
-8 -33 -15 -75 -15 -92 0 -18 -9 -52 -19 -75 -11 -24 -22 -55 -25 -69 -3 -15
-13 -29 -21 -33 -23 -8 -19 52 5 89 12 18 20 47 20 72 0 23 10 66 21 95 18 46
20 66 15 152 -4 72 -10 104 -22 117 -20 23 -47 24 -64 5 -10 -13 -16 -13 -46
1 -52 25 -57 13 -61 -139 -2 -108 -6 -138 -23 -170 -11 -21 -20 -46 -20 -56
-1 -18 -23 -52 -34 -52 -11 0 -7 25 15 91 26 80 33 306 10 333 -13 15 -15 15
-34 -1 -17 -16 -19 -27 -14 -89 4 -53 0 -91 -14 -145 -10 -40 -19 -85 -19
-100 0 -15 -7 -34 -15 -43 -8 -8 -15 -23 -15 -33 0 -19 -18 -43 -32 -43 -15 0
-8 42 12 67 11 14 20 37 20 52 1 14 9 51 20 81 14 38 19 82 20 146 0 85 -2 92
-26 115 -25 24 -26 24 -40 5 -10 -14 -14 -48 -14 -114 0 -70 -5 -105 -20 -140
-10 -26 -24 -67 -30 -92 -7 -25 -20 -60 -31 -78 -10 -18 -19 -41 -20 -50 0
-22 -70 -134 -86 -140 -22 -6 -14 23 12 54 41 46 45 53 45 64 0 6 6 21 14 33
14 22 33 81 58 172 7 29 13 103 13 175 0 118 -1 125 -20 125 -18 0 -20 -9 -26
-100 -3 -55 -11 -113 -17 -128 -7 -16 -12 -40 -12 -55 0 -15 -9 -40 -20 -57
-11 -16 -20 -37 -20 -45 0 -8 -18 -41 -40 -73 -22 -31 -40 -62 -40 -67 0 -6
-4 -10 -10 -10 -13 0 -13 37 0 45 11 7 50 92 50 111 0 7 7 19 15 28 9 8 20 41
26 73 6 32 16 64 22 71 5 7 11 55 11 107 1 84 -1 97 -21 116 -12 13 -28 19
-37 16 -13 -5 -16 -24 -16 -104 -1 -149 -54 -327 -129 -428 -17 -22 -42 -59
-58 -82 -15 -23 -31 -42 -35 -43 -12 0 -9 38 3 45 11 8 99 141 99 152 0 3 11
21 25 39 14 18 25 46 25 62 0 15 7 49 15 73 12 34 15 79 13 175 -3 121 -4 129
-23 129 -19 0 -20 -6 -17 -95 3 -68 0 -107 -11 -135 -8 -22 -18 -53 -21 -70
-8 -35 -66 -155 -82 -170 -6 -5 -14 -22 -18 -36 -3 -14 -19 -42 -35 -63 -42
-53 -50 -95 -21 -118 23 -19 23 -19 -11 -65 -28 -40 -33 -54 -30 -93 4 -60 4
-66 -5 -133 -5 -40 -3 -65 6 -82 10 -18 10 -31 1 -56 -11 -33 -4 -196 9 -204
4 -3 13 2 20 10 7 8 19 15 27 15 11 0 12 -9 7 -37 -8 -47 -36 -120 -47 -125
-13 -5 -57 111 -73 192 -83 429 -83 825 1 1194 8 38 22 90 30 115 8 25 24 96
37 156 20 100 22 136 22 390 -1 250 -4 289 -23 368 -11 48 -21 98 -21 111 0
24 -17 84 -81 286 -44 140 -73 213 -99 250 -9 14 -22 41 -29 60 -18 54 1 63
124 55 55 -3 107 -8 115 -10 8 -3 67 -9 130 -15 63 -6 135 -17 160 -24 50 -15
90 -6 90 18 0 9 -12 18 -27 21 -16 3 -48 10 -73 15 -25 5 -90 14 -145 20 -55
6 -118 15 -140 20 -52 12 -306 12 -325 0z m1121 -2018 c-6 -63 -16 -122 -22
-131 -7 -11 -8 -3 -3 29 4 25 8 90 10 145 3 119 2 115 16 91 8 -14 7 -50 -1
-134z m-35 -218 c-4 -18 -12 -34 -18 -34 -6 0 -7 8 -3 18 3 9 9 30 12 47 4 16
8 24 11 17 2 -7 1 -29 -2 -48z m195 -117 c-13 -13 -15 21 -3 50 6 15 8 13 10
-11 2 -16 -1 -33 -7 -39z m-461 41 c0 -19 -18 -43 -25 -36 -9 9 4 48 16 48 5
0 9 -6 9 -12z m223 -66 c-10 -15 -22 -40 -28 -56 -5 -16 -16 -31 -22 -34 -21
-6 -15 53 7 73 11 10 20 25 20 34 0 9 8 28 18 41 17 25 17 25 20 -3 2 -16 -5
-40 -15 -55z m78 -85 c-17 -17 -25 21 -10 51 13 27 13 27 17 -7 2 -18 -1 -38
-7 -44z m-233 30 c-7 -14 -13 -17 -16 -9 -6 19 6 44 18 37 7 -4 6 -14 -2 -28z
m-409 -56 c-32 -38 -49 -50 -49 -35 0 10 74 84 78 79 2 -2 -11 -22 -29 -44z
m371 -5 c0 -22 -43 -85 -59 -86 -10 0 -10 5 3 23 9 12 21 34 27 50 12 29 29
37 29 13z m118 -32 c-5 -28 -28 -29 -28 -1 0 13 3 27 7 30 10 11 25 -9 21 -29z
m-264 -11 c-10 -15 -22 -31 -27 -34 -5 -4 -14 -17 -20 -29 -7 -13 -18 -25 -24
-28 -21 -6 -15 27 7 40 11 7 32 30 47 51 30 43 44 43 17 0z m386 -12 c0 -6 -4
-13 -10 -16 -5 -3 -10 1 -10 9 0 9 5 16 10 16 6 0 10 -4 10 -9z m130 -15 c0
-13 -8 -34 -18 -47 -10 -13 -23 -36 -30 -51 -12 -29 -32 -38 -32 -15 0 7 9 29
20 50 11 20 20 43 20 50 0 14 20 37 32 37 4 0 8 -11 8 -24z m-810 -6 c-6 -11
-15 -18 -21 -14 -6 4 -6 11 2 20 17 21 31 17 19 -6z m88 -61 c-18 -22 -34 -36
-36 -30 -4 11 47 70 61 71 4 0 -7 -18 -25 -41z m562 16 c0 -14 -8 -29 -20 -35
-13 -7 -20 -21 -20 -38 0 -27 -15 -52 -32 -52 -15 0 -8 57 9 71 9 8 22 29 30
47 16 38 33 42 33 7z m-174 -64 c-9 -16 -16 -37 -16 -45 0 -8 -11 -27 -24 -43
-13 -15 -26 -38 -30 -50 -4 -11 -13 -24 -21 -27 -20 -7 -21 50 -1 61 8 4 21
25 29 46 9 20 20 37 26 37 5 0 18 13 27 30 23 38 30 31 10 -9z m-158 -34 c-7
-14 -13 -17 -16 -9 -6 19 6 44 18 37 7 -4 6 -14 -2 -28z m548 -45 c-11 -10
-15 4 -8 28 7 25 7 25 10 2 2 -13 1 -26 -2 -30z m-150 1 c-11 -11 -19 6 -11
24 8 17 8 17 12 0 3 -10 2 -21 -1 -24z m-426 -3 c0 -11 -9 -25 -20 -32 -11 -7
-20 -20 -20 -29 0 -9 -10 -24 -21 -35 -12 -10 -25 -29 -30 -42 -5 -13 -13 -21
-18 -18 -12 8 -3 42 15 57 8 6 14 17 14 25 0 7 8 19 18 26 9 7 23 25 29 41 15
32 33 36 33 7z m270 -29 c0 -32 -16 -49 -31 -34 -12 12 5 63 21 63 5 0 10 -13
10 -29z m-599 -14 c-8 -8 -11 -7 -11 4 0 20 13 34 18 19 3 -7 -1 -17 -7 -23z
m159 3 c0 -12 -13 -30 -46 -63 -12 -12 -24 -32 -28 -44 -8 -24 -36 -32 -36
-10 0 14 28 53 70 99 26 29 40 35 40 18z m730 -38 c0 -15 -6 -36 -14 -47 -7
-11 -16 -54 -20 -95 -4 -41 -14 -90 -22 -109 -19 -45 -18 -224 0 -304 8 -34
19 -84 24 -112 5 -27 14 -63 20 -80 28 -82 44 -144 40 -156 -6 -16 -68 109
-68 137 0 10 -9 33 -20 49 -11 17 -20 47 -20 67 0 21 -8 59 -17 85 -24 66 -24
258 0 326 9 26 17 62 17 80 0 18 10 48 22 67 12 19 20 47 19 62 -3 31 16 71
30 63 5 -4 9 -18 9 -33z m-488 -57 c-2 -14 -8 -28 -13 -31 -10 -6 -12 49 -3
59 13 12 21 -3 16 -28z m318 11 c0 -26 -15 -43 -24 -28 -7 12 4 52 15 52 5 0
9 -11 9 -24z m-164 -23 c-11 -11 -19 6 -11 24 8 17 8 17 12 0 3 -10 2 -21 -1
-24z m-205 -158 c-12 -44 -21 -93 -21 -111 0 -17 -7 -63 -16 -102 -14 -64 -14
-79 0 -170 9 -55 16 -112 16 -128 0 -16 7 -42 15 -58 22 -41 30 -102 15 -111
-15 -10 -30 12 -30 45 0 14 -8 37 -17 50 -10 14 -20 47 -24 75 -4 27 -12 94
-20 148 -12 87 -11 104 4 161 9 35 17 82 17 103 0 21 11 61 25 88 13 28 25 61
25 76 0 14 6 31 13 38 21 21 20 -19 -2 -104z m336 49 c-3 -30 -12 -63 -19 -71
-10 -12 -13 -63 -13 -202 0 -160 3 -189 18 -211 9 -13 17 -42 17 -63 0 -21 6
-48 14 -60 8 -12 18 -39 22 -61 9 -54 -18 -45 -29 10 -5 21 -17 56 -28 76 -10
20 -19 46 -19 58 0 12 -8 35 -17 53 -15 27 -18 59 -18 198 0 145 2 169 18 186
10 12 17 36 17 62 0 45 14 81 32 81 7 0 9 -18 5 -56z m79 -779 c8 -19 18 -35
23 -35 6 0 13 -10 17 -22 4 -13 15 -29 25 -36 21 -15 26 -56 7 -50 -7 3 -18
14 -24 26 -6 12 -18 30 -27 40 -10 10 -17 23 -17 29 0 6 -7 16 -15 23 -14 12
-22 60 -9 60 3 0 12 -16 20 -35z m200 2 c4 -12 24 -43 45 -68 54 -65 52 -113
-2 -51 -66 75 -79 95 -79 122 0 35 25 32 36 -3z M4060 9149 c-30 -4 -85 -12
-122 -17 -36 -6 -72 -13 -78 -17 -26 -16 -1 -38 75 -65 44 -15 125 -44 180
-65 55 -21 120 -45 145 -54 25 -10 78 -34 119 -55 66 -34 79 -37 125 -31 28 3
62 10 76 15 14 5 50 16 80 24 74 20 130 71 130 117 0 41 -4 47 -52 83 -71 53
-157 69 -403 71 -121 2 -245 -1 -275 -6z M3810 9001 c0 -10 8 -29 18 -42 10
-13 26 -42 36 -64 10 -22 25 -47 32 -56 23 -27 64 -241 64 -338 0 -70 3 -91
17 -102 12 -11 56 -14 179 -14 209 0 198 -9 201 166 1 95 6 142 19 179 22 61
19 65 -89 119 -99 50 -195 85 -419 156 -59 19 -58 19 -58 -4z M3872 8314 c-35
-24 -25 -57 18 -66 120 -25 531 -19 567 7 17 13 16 16 -13 46 -32 31 -32 31
-186 20 -111 -9 -178 -9 -238 -2 -111 14 -121 14 -148 -5z M3965 8158 c-9 -6
-15 -23 -15 -45 0 -90 -69 -264 -151 -381 -107 -154 -160 -247 -152 -269 3 -7
23 -17 46 -23 23 -6 56 -17 72 -25 76 -35 621 -37 765 -3 54 12 126 43 135 58
3 6 -10 36 -30 68 -135 209 -195 307 -195 315 0 6 -6 18 -13 26 -22 25 -48
109 -60 193 -7 42 -15 80 -19 84 -11 10 -364 12 -383 2z M4717 7312 c-3 -4 -1
-26 4 -48 28 -107 38 -212 29 -295 -12 -111 -29 -207 -42 -244 -6 -16 -16 -79
-23 -140 -7 -60 -20 -123 -29 -140 -9 -16 -16 -48 -16 -70 0 -22 -6 -50 -14
-60 -15 -23 -39 -241 -37 -345 1 -82 19 -218 32 -242 5 -10 14 -44 20 -75 5
-32 16 -71 23 -88 8 -16 23 -51 35 -76 12 -25 21 -51 21 -58 0 -24 29 -9 54
29 32 48 35 109 7 160 -10 19 -22 51 -26 70 -4 19 -13 46 -20 60 -23 44 -34
308 -21 460 7 74 17 144 23 155 6 11 14 49 18 85 4 36 13 79 22 95 8 17 19 67
24 113 5 46 16 100 25 120 12 30 14 64 9 182 -7 152 -18 206 -64 299 -26 53
-44 71 -54 53z M3520 7210 c-6 -21 -14 -42 -19 -45 -18 -10 -52 -147 -49 -193
3 -36 5 -42 12 -27 4 11 19 45 32 76 13 31 24 64 24 74 0 10 10 37 21 60 14
29 19 52 15 69 -9 37 -24 32 -36 -14z M4861 6788 c-6 -18 -15 -73 -20 -123 -6
-49 -17 -115 -26 -145 -8 -30 -15 -70 -15 -90 0 -19 -7 -48 -16 -65 -18 -35
-38 -218 -35 -330 2 -110 18 -245 30 -259 6 -7 15 -36 22 -64 11 -55 30 -67
49 -32 22 42 37 158 27 218 -5 31 -7 156 -4 277 5 173 10 238 26 305 21 86 27
255 12 310 -11 38 -37 37 -50 -2z M4926 6378 c-9 -37 -7 -236 3 -243 14 -8 22
44 24 152 1 57 -2 96 -9 103 -8 8 -13 5 -18 -12z M4515 5100 c-112 -31 -535
-38 -682 -11 -39 8 -79 11 -88 7 -19 -7 -15 -17 58 -126 105 -157 151 -295
150 -450 0 -111 -24 -249 -49 -288 -38 -59 -70 13 -40 89 20 49 20 73 2 92
-12 11 -29 12 -113 0 -257 -34 -353 -82 -353 -173 0 -45 26 -75 94 -109 53
-26 95 -37 236 -62 157 -28 655 -31 825 -5 159 24 250 54 307 99 42 33 48 42
48 75 0 31 -7 45 -37 73 -21 20 -56 43 -78 52 -50 20 -166 43 -265 52 -100 9
-107 2 -90 -94 7 -38 10 -76 7 -85 -11 -28 -36 -17 -59 27 -19 37 -22 61 -26
203 -3 130 -1 172 13 220 25 88 72 187 142 299 76 119 76 136 -2 115z M4735
3394 c-61 -6 -145 -25 -145 -32 0 -4 69 -7 153 -7 154 0 193 -6 312 -52 39
-14 49 -19 125 -62 20 -10 55 -38 78 -60 41 -40 62 -45 62 -17 0 7 -13 40 -30
72 -23 48 -37 63 -67 76 -147 61 -349 95 -488 82z M3112 3378 c-5 -7 -27 -56
-47 -108 -20 -52 -43 -106 -49 -120 -25 -48 -45 -96 -70 -165 -15 -38 -35 -93
-46 -120 -11 -28 -20 -54 -20 -59 0 -8 -35 -87 -66 -148 -8 -14 -14 -32 -14
-40 0 -7 -34 -96 -76 -198 -41 -102 -100 -250 -130 -329 -49 -128 -66 -166
-123 -269 -15 -28 -4 -42 37 -42 43 0 62 18 62 58 0 20 13 64 28 97 16 33 32
74 36 90 4 17 18 53 30 80 13 28 40 93 60 145 21 52 49 121 62 153 13 32 24
64 24 71 0 33 27 37 254 38 225 1 256 -3 256 -35 0 -16 51 -139 66 -162 8 -11
14 -26 14 -34 0 -8 9 -33 19 -55 23 -48 50 -117 81 -201 12 -33 30 -77 41 -97
11 -22 19 -57 19 -86 0 -49 0 -49 68 -55 74 -6 192 2 192 13 0 4 -9 15 -21 26
-19 17 -129 229 -129 248 0 5 -15 47 -34 95 -19 47 -46 118 -61 156 -15 39
-40 97 -55 130 -15 33 -48 116 -74 185 -26 69 -56 143 -66 165 -25 54 -81 192
-119 290 -61 160 -117 289 -127 292 -6 2 -16 -2 -22 -9z m-2 -386 c12 -32 27
-71 35 -89 8 -17 15 -36 15 -43 0 -6 9 -28 19 -48 32 -63 58 -126 65 -159 4
-17 14 -37 22 -44 19 -15 18 -35 -2 -43 -25 -10 -402 -7 -408 3 -4 5 1 22 9
38 8 15 31 73 51 128 44 119 123 305 137 323 15 19 33 -2 57 -66z M6833 3378
c-6 -7 -19 -38 -29 -68 -10 -30 -24 -66 -31 -80 -7 -14 -13 -30 -13 -36 0 -6
-16 -46 -35 -89 -19 -42 -49 -113 -67 -158 -17 -45 -41 -110 -54 -144 -13 -34
-24 -65 -24 -68 0 -4 -13 -35 -29 -69 -41 -87 -76 -173 -95 -233 -10 -28 -33
-89 -52 -135 -20 -45 -39 -95 -44 -110 -5 -15 -15 -40 -23 -55 -15 -28 -23
-47 -73 -178 -15 -38 -38 -90 -52 -113 -21 -36 -23 -45 -11 -53 34 -22 89 -1
89 34 1 31 106 311 176 464 8 17 14 37 14 45 0 7 6 22 13 33 8 11 22 44 33 73
10 29 24 58 30 63 9 8 314 14 455 10 24 -1 71 -101 150 -321 18 -52 38 -99 94
-225 15 -33 29 -84 32 -113 4 -34 12 -56 22 -61 9 -4 62 -6 119 -3 112 5 119
10 78 59 -13 15 -27 39 -31 53 -4 14 -14 34 -21 45 -8 11 -14 26 -14 34 0 7
-9 35 -21 60 -68 149 -109 245 -109 257 0 10 -52 141 -80 199 -10 22 -34 81
-53 130 -19 50 -52 133 -72 185 -20 52 -50 123 -66 158 -16 35 -36 80 -43 100
-115 312 -133 347 -163 310z m-13 -348 c11 -21 20 -44 20 -50 0 -6 11 -35 24
-63 13 -29 44 -104 70 -167 26 -63 54 -127 61 -142 13 -25 12 -29 -5 -38 -23
-12 -380 -13 -399 -1 -14 9 -10 24 39 136 5 11 22 54 39 95 16 41 42 104 56
140 15 36 33 80 41 98 17 42 29 40 54 -8z M823 3363 c-7 -2 -13 -12 -13 -22 0
-9 6 -23 13 -29 17 -17 23 -1336 7 -1415 -24 -111 -24 -107 -4 -108 87 -6 893
4 948 11 154 22 267 82 397 210 120 119 170 201 234 385 19 56 36 216 30 290
-13 159 -89 346 -177 432 -111 109 -225 177 -348 209 -136 36 -402 54 -485 34
-30 -7 -30 -7 -4 -18 15 -6 68 -15 117 -21 50 -5 115 -17 144 -27 88 -28 211
-86 244 -115 11 -11 25 -19 31 -19 18 0 136 -125 186 -198 74 -107 107 -214
114 -370 5 -108 2 -141 -16 -215 -37 -157 -121 -303 -224 -393 -45 -39 -170
-104 -200 -104 -10 0 -34 -8 -55 -18 -62 -31 -276 -48 -430 -33 -109 10 -136
17 -192 44 -52 26 -70 41 -89 75 -13 24 -25 62 -26 85 -2 23 -4 320 -5 660 -2
573 -1 620 15 637 17 19 16 20 -9 30 -27 10 -180 13 -203 3z M5685 3360 c-3
-5 4 -26 15 -47 20 -37 20 -54 20 -735 0 -621 -2 -702 -16 -738 -9 -23 -13
-44 -9 -48 9 -9 218 -3 227 6 3 4 0 25 -8 47 -11 33 -14 164 -14 738 0 615 2
702 16 728 27 54 18 59 -110 59 -63 0 -117 -4 -121 -10z M4438 3340 c-15 -11
-32 -20 -40 -21 -34 -1 -196 -110 -254 -171 -133 -141 -199 -275 -239 -486
-24 -124 -16 -213 31 -375 42 -141 140 -280 258 -366 73 -53 198 -111 264
-122 227 -39 239 -40 422 -35 102 2 197 9 212 14 14 6 55 14 90 18 86 9 197
40 221 61 24 23 41 63 29 75 -5 5 -53 -11 -110 -37 -56 -24 -123 -50 -149 -56
-26 -7 -54 -16 -60 -21 -20 -16 -198 -26 -308 -18 -104 7 -206 35 -280 77 -22
12 -56 31 -75 42 -68 38 -222 187 -248 241 -6 14 -16 32 -21 40 -17 26 -50
103 -71 165 -76 216 -90 371 -46 501 29 84 78 185 113 231 21 29 128 119 175
148 9 6 37 25 62 43 26 17 55 32 64 33 9 0 33 7 52 14 35 13 35 13 -2 14 -20
1 -43 3 -50 6 -8 3 -26 -3 -40 -15z M5158 1393 c-50 -8 -53 -20 -55 -242 -1
-114 3 -221 9 -238 10 -33 10 -33 107 -33 89 0 101 2 132 25 19 13 44 30 56
36 13 7 25 21 29 33 3 12 16 31 27 44 18 19 21 35 21 110 0 81 -2 90 -31 132
-53 77 -81 96 -170 119 -45 12 -86 20 -90 20 -5 -1 -20 -4 -35 -6z m130 -63
c73 -21 87 -29 112 -63 54 -73 53 -206 -2 -274 -43 -55 -80 -75 -151 -80 -95
-8 -96 -6 -97 213 -1 98 2 188 6 199 9 23 25 36 39 32 6 -2 47 -14 93 -27z
M801 1376 c-9 -11 -12 -31 -8 -64 3 -26 1 -87 -4 -136 -11 -108 -3 -127 42
-95 35 25 36 35 7 67 -20 20 -23 35 -23 97 0 94 16 115 87 115 66 0 111 -21
142 -66 36 -53 33 -77 -13 -123 -33 -33 -48 -40 -95 -46 -53 -7 -70 -25 -22
-25 30 0 71 -45 106 -115 28 -56 66 -105 82 -105 17 0 6 36 -22 75 -16 22 -34
50 -39 62 -5 11 -15 24 -20 28 -6 3 -11 20 -11 36 0 24 6 32 28 40 33 11 72
76 72 120 0 39 -31 91 -72 120 -42 30 -216 41 -237 15z M1373 1374 c-57 -21
-130 -87 -138 -126 -4 -18 -14 -38 -21 -46 -17 -16 -20 -147 -4 -157 6 -4 17
-21 25 -38 18 -41 60 -87 78 -87 8 0 26 -9 40 -20 19 -15 40 -20 89 -19 90 0
162 37 206 104 30 47 32 55 32 139 0 73 -4 95 -22 125 -36 61 -80 100 -135
121 -62 23 -92 24 -150 4z m105 -33 c15 -10 39 -21 54 -24 14 -4 45 -30 70
-59 43 -51 43 -53 42 -127 0 -68 -4 -81 -31 -121 -17 -25 -46 -56 -65 -70 -29
-22 -43 -25 -110 -25 -74 1 -78 2 -112 35 -20 19 -36 40 -36 46 0 5 -12 26
-26 45 -23 30 -25 40 -20 95 4 46 13 73 36 108 33 48 65 76 88 76 8 0 25 9 39
20 32 25 38 25 71 1z M7395 1381 c-50 -8 -120 -62 -145 -112 -10 -19 -26 -41
-34 -48 -12 -10 -16 -33 -16 -96 0 -69 3 -85 20 -100 11 -10 20 -24 20 -32 0
-17 70 -83 88 -83 18 0 15 14 -8 35 -11 10 -33 42 -50 71 -34 61 -40 131 -16
188 19 45 84 116 106 116 9 0 28 9 42 19 27 22 78 17 136 -14 18 -9 40 -14 48
-11 30 12 9 38 -46 56 -58 20 -79 22 -145 11z M1847 1373 c-2 -5 -4 -113 -4
-240 0 -190 2 -233 13 -233 18 0 17 -11 20 175 1 88 3 166 3 173 2 29 32 7 86
-63 31 -41 61 -75 65 -75 4 0 11 -11 14 -24 11 -43 43 -43 82 1 44 49 99 132
109 161 4 14 13 22 23 20 15 -3 18 -26 22 -190 3 -102 8 -190 12 -193 4 -4 14
-5 23 -1 14 5 15 35 14 240 -1 129 -5 240 -9 247 -14 21 -40 1 -61 -46 -11
-24 -29 -49 -39 -55 -11 -6 -20 -15 -20 -21 0 -6 -24 -39 -52 -75 -66 -80 -85
-82 -124 -16 -15 26 -31 50 -36 53 -5 3 -17 17 -26 31 -9 14 -34 51 -54 82
-36 53 -51 66 -61 49z M2632 1359 c-7 -12 -29 -70 -47 -131 -19 -60 -38 -115
-43 -121 -15 -21 -72 -175 -72 -196 0 -12 7 -21 15 -21 16 0 35 30 35 57 0 10
16 42 35 72 27 41 35 63 35 99 1 54 49 177 70 177 18 0 69 -122 70 -167 0 -27
-6 -41 -22 -52 -22 -16 -22 -16 4 -16 35 0 76 -50 85 -102 7 -46 39 -86 55
-70 11 11 -1 55 -33 127 -10 22 -27 61 -38 86 -12 25 -21 53 -21 63 0 9 -6 27
-14 39 -7 12 -19 44 -25 71 -24 99 -60 133 -89 85z M3000 1361 c-6 -12 -10
-104 -10 -231 0 -217 7 -263 36 -239 11 9 14 46 14 183 0 136 3 176 15 192 20
27 18 57 -6 88 -24 31 -35 33 -49 7z M3906 1333 c-13 -27 -27 -59 -31 -73 -4
-14 -13 -32 -19 -40 -13 -16 -25 -52 -57 -169 -11 -41 -27 -83 -35 -95 -20
-29 -18 -58 3 -54 12 2 20 18 26 47 11 57 31 86 67 101 30 12 30 12 10 37 -18
23 -18 27 -3 61 8 20 19 44 24 52 5 8 16 30 25 48 9 20 21 32 30 30 20 -4 53
-101 54 -156 0 -34 8 -52 39 -91 23 -30 41 -65 45 -89 5 -37 27 -59 45 -47 10
6 -10 87 -26 106 -6 8 -15 28 -19 44 -3 17 -13 41 -20 55 -24 47 -56 125 -76
190 -33 106 -46 113 -82 43z M4287 1374 c-12 -13 -8 -462 4 -470 23 -14 29 25
28 177 -1 86 1 161 5 168 13 20 31 11 51 -26 11 -20 41 -63 67 -96 26 -32 72
-96 102 -141 67 -101 80 -113 101 -96 24 20 19 69 -7 80 -54 24 -81 50 -140
139 -34 52 -78 111 -98 131 -19 21 -46 59 -60 85 -25 48 -40 62 -53 49z M5646
1372 c-3 -5 -6 -113 -7 -241 -1 -230 4 -272 31 -245 15 15 9 486 -7 491 -6 2
-14 0 -17 -5z M6673 1368 c-14 -19 -9 -456 6 -471 24 -24 31 14 33 183 4 209
10 219 78 113 23 -37 62 -91 86 -120 24 -28 44 -55 44 -61 0 -5 9 -17 21 -28
12 -10 30 -36 40 -56 22 -44 35 -53 53 -39 20 17 22 463 2 480 -29 24 -36 -11
-35 -187 2 -216 -6 -233 -61 -137 -18 31 -45 70 -62 88 -16 18 -42 52 -58 77
-16 25 -35 52 -43 60 -8 8 -26 36 -41 63 -28 48 -46 57 -63 35z M5875 1348
c-3 -13 -2 -68 3 -123 6 -55 7 -109 3 -120 -3 -11 -6 -58 -6 -105 0 -69 3 -85
15 -85 13 0 15 24 15 156 0 117 3 160 14 172 17 22 30 21 38 0 4 -10 31 -48
61 -85 30 -37 61 -82 71 -100 26 -52 123 -178 137 -178 14 0 24 22 24 54 0 25
-29 53 -65 62 -14 3 -25 10 -25 14 0 5 -18 31 -40 59 -22 28 -40 55 -40 60 0
5 -26 43 -58 83 -31 40 -70 92 -85 116 -30 46 -54 54 -62 20z M3340 1241 c0
-65 -3 -146 -6 -180 -6 -53 -9 -61 -28 -61 -15 0 -27 13 -40 41 -10 23 -50 80
-87 126 -38 47 -69 89 -69 94 0 5 -7 9 -16 9 -35 0 5 -69 126 -216 5 -7 32
-46 60 -88 57 -84 65 -92 84 -77 10 8 13 65 15 241 1 224 1 230 -19 230 -19 0
-20 -6 -20 -119z M3568 1248 c-5 -188 4 -343 22 -343 12 0 14 21 13 125 -1 69
-2 171 -2 228 -1 81 -4 102 -15 102 -11 0 -15 -24 -18 -112z M4626 1351 c-10
-15 -4 -225 6 -238 6 -7 5 -19 -1 -32 -13 -24 -15 -81 -2 -81 23 0 28 36 27
189 -1 115 -4 165 -13 168 -6 2 -14 0 -17 -6z M6443 1135 c3 -297 20 -307 27
-15 3 118 4 221 2 228 -2 6 -10 12 -18 12 -11 0 -13 -40 -11 -225z M6214 1316
c-3 -20 -3 -69 0 -109 8 -89 8 -102 0 -153 -6 -41 10 -70 25 -45 13 20 7 334
-6 338 -7 3 -15 -10 -19 -31z M7550 1120 c-45 -7 -45 -10 -3 -15 47 -5 56 -23
51 -108 -4 -67 -3 -77 11 -75 21 4 32 74 23 146 -8 63 -9 64 -82 52z M3920
1070 c-12 -8 -11 -10 8 -10 12 0 22 5 22 10 0 13 -11 13 -30 0z M797 1044
c-10 -11 -9 -52 2 -59 13 -8 24 32 14 50 -5 9 -12 12 -16 9z M793 944 c-3 -8
-1 -20 6 -27 8 -8 11 -4 11 16 0 30 -7 35 -17 11z M7350 910 c0 -4 7 -13 15
-20 24 -20 216 -6 194 14 -8 7 -209 13 -209 6z"/>
</g>
</svg>
